<?xml version="1.0" standalone="no"?>
<!DOCTYPE svg PUBLIC "-//W3C//DTD SVG 20010904//EN"
 "http://www.w3.org/TR/2001/REC-SVG-20010904/DTD/svg10.dtd">
<svg version="1.0" xmlns="http://www.w3.org/2000/svg"
 width="512.000000pt" height="512.000000pt" viewBox="0 0 512.000000 512.000000"
 preserveAspectRatio="xMidYMid meet">

<g transform="translate(0.000000,512.000000) scale(0.100000,-0.100000)"
fill="#000000" stroke="none">
<path d="M3585 4576 c-42 -19 -617 -601 -648 -656 -50 -88 -57 -139 -57 -449
l0 -286 -354 -355 c-373 -373 -396 -401 -396 -485 0 -42 29 -116 58 -149 26
-30 113 -66 157 -66 84 1 112 23 485 396 l355 354 286 0 c310 0 361 7 449 57
64 36 647 619 660 659 8 25 8 40 -3 66 -27 65 -11 63 -446 68 l-396 5 -5 396
c-5 434 -3 419 -67 446 -39 16 -40 16 -78 -1z"/>
<path d="M2180 4260 c-766 -74 -1411 -581 -1651 -1300 -80 -241 -104 -412 -96
-679 9 -301 67 -529 204 -801 186 -371 472 -656 843 -843 162 -82 314 -135
494 -173 166 -35 458 -44 626 -20 435 64 799 243 1101 545 333 334 521 745
559 1225 22 265 -9 381 -114 435 -83 43 -192 26 -252 -41 -49 -53 -55 -79 -58
-266 -6 -323 -82 -574 -250 -826 -345 -517 -983 -766 -1586 -621 -205 50 -422
156 -582 283 -150 119 -318 323 -400 486 -296 586 -182 1287 283 1746 292 288
675 437 1099 428 121 -3 127 -2 172 25 71 42 108 107 108 191 -1 84 -70 174
-150 196 -54 14 -244 20 -350 10z"/>
<path d="M2045 3369 c-165 -47 -351 -163 -473 -293 -209 -224 -316 -538 -283
-831 43 -379 254 -685 586 -850 63 -32 153 -66 210 -82 87 -23 120 -26 260
-27 137 0 173 3 249 23 195 51 340 130 481 263 145 138 251 310 295 483 26
100 15 155 -41 219 -68 77 -165 94 -259 46 -52 -27 -81 -69 -117 -172 -59
-166 -165 -290 -313 -368 -97 -50 -180 -70 -295 -70 -355 0 -635 280 -635 635
1 288 164 512 446 610 58 21 109 46 127 62 103 97 84 267 -37 338 -59 35 -116
39 -201 14z"/>
</g>
</svg>
